<control>
 hint_ram_based=1
 set_cc1=0
 set_cc11=127
 set_cc64=0

<global>
 lfo06_wave=0
 lfo06_pitch=0 lfo06_pitch_oncc129=50 lfo06_pitch_oncc1=50
 lfo06_freq=8.176
 amplitude_oncc11=100 amplitude_curvecc11=7

<master>
<group>
 ampeg_sustain=0.001
 ampeg_release=0.4
 loop_mode=loop_continuous

<region>
sample=3_F.wav
lokey=0 hikey=53
pitch_keycenter=53
ampeg_decay=25.0
<region>
sample=3_Gb.wav
key=54
ampeg_decay=25.0
<region>
sample=3_G.wav
key=55
ampeg_decay=24.8
<region>
sample=3_Ab.wav
key=56
ampeg_decay=24.6
<region>
sample=3_A.wav 
key=57
ampeg_decay=24.6
<region>
sample=3_Bb.wav
key=58
ampeg_decay=24.4
<region>
sample=3_B.wav
key=59
ampeg_decay=24.6
<region>
sample=4_C.wav
key=60
ampeg_decay=24.2
<region>
sample=4_Db.wav
key=61
ampeg_decay=24
<region>
sample=4_D.wav
key=62
ampeg_decay=23.7
<region>
sample=4_Eb.wav
key=63
ampeg_decay=23.4
<region>
sample=4_E.wav
key=64
ampeg_decay=22.8
<region>
sample=4_F.wav
key=65
ampeg_decay=22.2
<region>
sample=4_Gb.wav
key=66
ampeg_decay=21.2
<region>
sample=4_G.wav
key=67
ampeg_decay=20.9
<region>
sample=4_Ab.wav
key=68
ampeg_decay=19.9
<region>
sample=4_A.wav
key=69
ampeg_decay=19
<region>
sample=4_Bb.wav
key=70
ampeg_decay=18.6
<region>
sample=4_B.wav
key=71
ampeg_decay=18.0
<region>
sample=5_C.wav
key=72
ampeg_decay=17.7
<region>
sample=5_Db.wav
key=73
ampeg_decay=17.2
<region>
sample=5_D.wav
key=74
ampeg_decay=16.9
<region>
sample=5_Eb.wav
key=75
ampeg_decay=16.6
<region>
sample=5_E.wav
key=76
ampeg_decay=16.3
<region>
sample=5_F.wav
key=77
ampeg_decay=16
<region>
sample=5_Gb.wav
key=78
ampeg_decay=16
<region>
sample=5_G.wav
key=79
ampeg_decay=15.8
<region>
sample=5_Ab.wav
key=80
ampeg_decay=15.8
<region>
sample=5_A.wav
key=81
ampeg_decay=15.8
<region>
sample=5_Bb.wav
key=82
ampeg_decay=15.5
<region>
sample=5_B.wav
key=83
ampeg_decay=15.5
<region>
sample=6_C.wav
key=84
ampeg_decay=15.2
<region>
sample=6_Db.wav
key=85
ampeg_decay=15.2
<region>
sample=6_D.wav
key=86
ampeg_decay=15
<region>
sample=6_Eb.wav
key=87
ampeg_decay=15
<region>
sample=6_E.wav
key=88
ampeg_decay=15
<region>
sample=6_F.wav
lokey=89 hikey=127
pitch_keycenter=89
ampeg_decay=15
